# xmcd
#
# Track frame offsets: 
#        150
#        19051
#        34986
#        50772
#        67872
#        85518
#        129805
#        151310
#
# Disc length: 2142 seconds
#
# Revision: 0
# Processed by: cddbd v1.4PL0 Copyright (c) Steve Scherf et al.
# Submitted via: ExactAudioCopy v0.95a3
#
DISCID=58085c08
DTITLE=B.B.Max - Joker
DYEAR=2003
DGENRE=Blues
TTITLE0=Joker
TTITLE1=China Town Blues
TTITLE2=Motor
TTITLE3=Gipsy On The Road
TTITLE4=Drunk Banjo
TTITLE5=Spacematic
TTITLE6=Times
TTITLE7=1736. Old Classic Song
EXTD=
EXTT0=
EXTT1=
EXTT2=
EXTT3=
EXTT4=
EXTT5=
EXTT6=
EXTT7=
PLAYORDER=
